<svg width="16" height="16" viewBox="0 0 16 16" fill="none" xmlns="http://www.w3.org/2000/svg">
<g id="angle-right (1) 1">
<path id="Vector" d="M4.05267 0.999998C4.05291 1.26513 4.15842 1.51931 4.34601 1.70667L9.46067 6.82133C9.61548 6.9761 9.73829 7.15985 9.82208 7.36209C9.90586 7.56433 9.94898 7.78109 9.94898 8C9.94898 8.21891 9.90586 8.43567 9.82208 8.63791C9.73829 8.84014 9.61548 9.02389 9.46067 9.17867L4.35267 14.29C4.17052 14.4786 4.06972 14.7312 4.072 14.9934C4.07428 15.2556 4.17945 15.5064 4.36485 15.6918C4.55026 15.8772 4.80108 15.9824 5.06327 15.9847C5.32547 15.987 5.57807 15.8862 5.76667 15.704L10.8747 10.5967C11.5615 9.90849 11.9472 8.97594 11.9472 8.00366C11.9472 7.03139 11.5615 6.09884 10.8747 5.41067L5.76001 0.295999C5.62035 0.156254 5.44244 0.0610065 5.2487 0.0222778C5.05497 -0.0164528 4.85411 0.00307083 4.67147 0.0783825C4.48882 0.153695 4.33257 0.281422 4.22245 0.445444C4.11232 0.609467 4.05324 0.802435 4.05267 0.999998Z" fill="#0C243A"/>
</g>
</svg>
