<svg width="24" height="24" viewBox="0 0 24 24" fill="none" xmlns="http://www.w3.org/2000/svg">
<g id="Capa_1" clip-path="url(#clip0_116_1943)">
<g id="Group">
<path id="Vector" d="M14.1211 12.0002L23.5608 2.56161C24.1467 1.97565 24.1467 1.02563 23.5608 0.439714C22.9748 -0.146246 22.0248 -0.146246 21.4389 0.439714L12.0002 9.8793L2.56162 0.439714C1.97566 -0.146246 1.02564 -0.146246 0.439722 0.439714C-0.146191 1.02567 -0.146238 1.9757 0.439722 2.56161L9.8793 12.0002L0.439722 21.4389C-0.146238 22.0248 -0.146238 22.9748 0.439722 23.5608C1.02568 24.1467 1.97571 24.1467 2.56162 23.5608L12.0002 14.1211L21.4388 23.5608C22.0248 24.1467 22.9748 24.1467 23.5607 23.5608C24.1467 22.9748 24.1467 22.0248 23.5607 21.4389L14.1211 12.0002Z" fill="#0C243A"/>
</g>
</g>
<defs>
<clipPath id="clip0_116_1943">
<rect width="24" height="24" fill="white"/>
</clipPath>
</defs>
</svg>
