<svg width="34" height="34" viewBox="0 0 34 34" fill="none" xmlns="http://www.w3.org/2000/svg">
<g id="Edit avatar">
<circle id="Ellipse 6" cx="17" cy="17" r="17" fill="#FE5F55"/>
<path id="Vector" d="M20.38 9.73763L10.22 19.8976C9.83197 20.2836 9.52433 20.7427 9.31492 21.2483C9.1055 21.754 8.99847 22.2962 9.00002 22.8435V23.9626C9.00002 24.1836 9.08781 24.3956 9.24409 24.5519C9.40037 24.7082 9.61234 24.796 9.83335 24.796H10.9525C11.4998 24.7975 12.042 24.6905 12.5476 24.4811C13.0533 24.2716 13.5124 23.964 13.8984 23.576L24.0583 13.416C24.5453 12.9278 24.8188 12.2664 24.8188 11.5768C24.8188 10.8872 24.5453 10.2258 24.0583 9.73763C23.5631 9.2642 22.9043 9 22.2192 9C21.534 9 20.8753 9.2642 20.38 9.73763ZM22.88 12.2376L12.72 22.3976C12.2501 22.8647 11.615 23.1276 10.9525 23.1293H10.6667V22.8435C10.6684 22.181 10.9313 21.5459 11.3983 21.076L21.5584 10.916C21.7363 10.7459 21.973 10.651 22.2192 10.651C22.4653 10.651 22.702 10.7459 22.88 10.916C23.055 11.0914 23.1532 11.329 23.1532 11.5768C23.1532 11.8245 23.055 12.0622 22.88 12.2376Z" fill="white"/>
</g>
</svg>
